<?xml version="1.0" encoding="UTF-8"?>
<svg version="1.1" xmlns="http://www.w3.org/2000/svg" width="200" height="100">
<path d="M0 0 C2.375 1.625 2.375 1.625 4.375 3.625 C4.7109375 5.90234375 4.7109375 5.90234375 4.75 8.5625 C4.77835938 9.43777344 4.80671875 10.31304687 4.8359375 11.21484375 C4.375 13.625 4.375 13.625 2.7109375 15.4296875 C-0.17973017 16.90885858 -2.14502779 16.92785615 -5.375 16.8125 C-6.85226563 16.77189453 -6.85226563 16.77189453 -8.359375 16.73046875 C-9.10703125 16.69566406 -9.8546875 16.66085938 -10.625 16.625 C-15.15852841 23.99198367 -15.83343692 30.64788506 -14.1171875 39.13671875 C-13.43221162 41.57991493 -13.43221162 41.57991493 -11.625 44.625 C-9.05419865 45.75940778 -9.05419865 45.75940778 -6.625 45.625 C-7.3493984 42.53600773 -7.3493984 42.53600773 -9.6875 41 C-12.25297626 37.85522265 -12.06524818 35.69216807 -12.05859375 31.74609375 C-11.625 29.625 -11.625 29.625 -10.5546875 27.87890625 C-5.89167504 24.84889208 1.03084073 26.05610563 6.375 26.625 C10.02998455 27.67719252 10.22778995 28.17645052 12.375 31.625 C13.65743347 40.00581521 12.72107246 48.43351787 8.0859375 55.625 C4.92188791 59.6858123 1.51589945 62.56071028 -3.625 63.625 C-10.94662325 64.43290325 -17.6774539 64.3644508 -23.625 59.625 C-32.08623369 50.91823944 -31.98838808 41.79361853 -32 30.1875 C-32.02449219 28.90294922 -32.04898438 27.61839844 -32.07421875 26.29492188 C-32.10100464 17.62968752 -31.27568785 12.31290789 -25.87890625 5.3828125 C-25.04166016 4.57457031 -25.04166016 4.57457031 -24.1875 3.75 C-23.63191406 3.19570313 -23.07632813 2.64140625 -22.50390625 2.0703125 C-16.14458521 -2.82147291 -7.258436 -2.75319986 0 0 Z " fill="#FFFFFF" transform="translate(179.625,17.375)"/>
<path d="M0 0 C4.3200783 4.3200783 5.5091823 7.84595246 5.5625 13.9375 C5.42084488 18.96887987 5.28535486 22.70950094 1.87890625 26.54296875 C-4.18664588 31.61716182 -12.72233948 38.0625 -20.9375 38.0625 C-20.91655273 38.64741211 -20.89560547 39.23232422 -20.87402344 39.83496094 C-20.79069885 42.49396465 -20.73879103 45.15269355 -20.6875 47.8125 C-20.63722656 49.19308594 -20.63722656 49.19308594 -20.5859375 50.6015625 C-20.48746155 57.39640326 -20.48746155 57.39640326 -22.703125 60.67578125 C-25.04876651 62.13155526 -26.20793527 62.57996772 -28.9375 62.5 C-29.5975 62.49871094 -30.2575 62.49742188 -30.9375 62.49609375 C-33.60239147 61.91835361 -34.94077485 60.91320432 -36.9375 59.0625 C-37.44975281 56.88619995 -37.44975281 56.88619995 -37.4675293 54.33154297 C-37.4922657 52.89523026 -37.4922657 52.89523026 -37.51750183 51.42990112 C-37.51559341 50.39858063 -37.513685 49.36726013 -37.51171875 48.3046875 C-37.52588333 47.24589386 -37.54004791 46.18710022 -37.55464172 45.09622192 C-37.59663667 41.70987828 -37.61180309 38.32406777 -37.625 34.9375 C-37.65400189 31.54403888 -37.68848393 28.15071509 -37.72749329 24.75735474 C-37.75007739 22.64403475 -37.76583753 20.53062938 -37.77433777 18.41720581 C-37.78137222 17.46596832 -37.78840668 16.51473083 -37.7956543 15.53466797 C-37.79913376 14.69322235 -37.80261322 13.85177673 -37.80619812 12.98483276 C-37.7264849 11.05442258 -37.7264849 11.05442258 -38.9375 10.0625 C-39.00976502 8.20962498 -39.0213122 6.35416122 -39 4.5 C-38.99097656 3.48808594 -38.98195313 2.47617187 -38.97265625 1.43359375 C-38.96105469 0.65113281 -38.94945312 -0.13132812 -38.9375 -0.9375 C-26.38543328 -8.42046285 -12.32073655 -8.12644326 0 0 Z M-20.9375 11.0625 C-20.9375 13.7025 -20.9375 16.3425 -20.9375 19.0625 C-17.9655615 17.93798273 -15.60309313 16.83956209 -12.9375 15.0625 C-12.9375 14.4025 -12.9375 13.7425 -12.9375 13.0625 C-16.02559695 11.29787317 -17.17062136 11.0625 -20.9375 11.0625 Z " fill="#FFFFFF" transform="translate(48.9375,18.9375)"/>
<path d="M0 0 C3.34921715 0.10222361 6.69379229 0.21199732 10.04052734 0.37915039 C11.19166016 0.40299805 12.34279297 0.4268457 13.52880859 0.45141602 C22.33759731 0.81803037 28.54317605 2.75819428 34.97802734 8.87915039 C37.3197285 14.68249674 37.33791293 20.28771908 36.41552734 26.44165039 C34.94112749 29.74472285 33.03005807 31.97140944 30.41552734 34.44165039 C29.86251953 34.99336914 29.30951172 35.54508789 28.73974609 36.11352539 C24.24739834 40.28572882 18.72255917 44.44165039 12.41552734 44.44165039 C12.43647461 45.0265625 12.45742187 45.61147461 12.47900391 46.21411133 C12.5623285 48.87311504 12.61423631 51.53184394 12.66552734 54.19165039 C12.71580078 55.57223633 12.71580078 55.57223633 12.76708984 56.98071289 C12.86537387 63.76231105 12.86537387 63.76231105 10.68505859 67.05493164 C8.15650901 68.5999146 6.79498056 68.95381925 3.85302734 68.87915039 C3.08861328 68.87786133 2.32419922 68.87657227 1.53662109 68.87524414 C-1.23781179 68.30809488 -1.93125449 67.75725354 -3.58447266 65.44165039 C-3.90455814 62.786592 -4.04925912 60.35396999 -4.06103516 57.69555664 C-4.07661469 56.92920395 -4.09219421 56.16285126 -4.10824585 55.37327576 C-4.1557547 52.91691265 -4.18345314 50.46082684 -4.20947266 48.00415039 C-4.25822614 44.79700523 -4.31487118 41.59003434 -4.37353516 38.38305664 C-4.38654663 37.60572174 -4.39955811 36.82838684 -4.41296387 36.02749634 C-4.51773993 30.62758187 -4.85112735 25.28090721 -5.35742188 19.90234375 C-5.64853115 16.7474079 -5.78695866 13.60925 -5.83447266 10.44165039 C-5.86025391 9.38977539 -5.88603516 8.33790039 -5.91259766 7.25415039 C-5.43186611 3.1335943 -4.27860922 0.73115474 0 0 Z M11.41552734 18.44165039 C11.74552734 20.75165039 12.07552734 23.06165039 12.41552734 25.44165039 C15.68013708 23.63752396 17.3048253 22.60770346 19.41552734 19.44165039 C16.70673399 18.08725371 14.40619467 18.37663588 11.41552734 18.44165039 Z " fill="#FFFFFF" transform="translate(64.58447265625,15.558349609375)"/>
<path d="M0 0 C0.86625 0.00128906 1.7325 0.00257812 2.625 0.00390625 C5.50335616 0.52939562 6.21758863 1.15385371 8 3.4375 C10.1971074 13.17762347 9.11479937 24.22891092 9.0625 34.1875 C9.05747197 35.86718616 9.05291138 37.54687378 9.04882812 39.2265625 C9.03793264 43.29691196 9.02074084 47.36718929 9 51.4375 C10.03640625 51.39109375 11.0728125 51.3446875 12.140625 51.296875 C13.51038779 51.25934725 14.88018182 51.22294816 16.25 51.1875 C17.27287109 51.13722656 17.27287109 51.13722656 18.31640625 51.0859375 C21.81284093 51.01804556 23.63752893 51.16051569 26.45336914 53.31225586 C28.24227419 55.77041189 28.5138947 56.99004873 28.4375 60 C28.43621094 60.76441406 28.43492187 61.52882812 28.43359375 62.31640625 C27.87556668 65.04621433 27.23964125 65.7797876 25 67.4375 C22.04492187 67.82568359 22.04492187 67.82568359 18.46875 67.8359375 C17.18355469 67.83980469 15.89835937 67.84367187 14.57421875 67.84765625 C13.90567871 67.84137207 13.23713867 67.83508789 12.54833984 67.82861328 C10.5068067 67.81255354 8.46725292 67.82846671 6.42578125 67.84765625 C5.14058594 67.84378906 3.85539062 67.83992188 2.53125 67.8359375 C1.35111328 67.83255371 0.17097656 67.82916992 -1.04492188 67.82568359 C-4 67.4375 -4 67.4375 -5.8762207 66.41796875 C-7.6799607 63.2391856 -7.48209949 59.91436586 -7.51171875 56.3515625 C-7.52985123 55.54599411 -7.5479837 54.74042572 -7.56666565 53.91044617 C-7.62167116 51.29450475 -7.65539761 48.67881482 -7.6875 46.0625 C-7.71818585 44.27757237 -7.7497617 42.49265983 -7.78222656 40.70776367 C-7.84299774 37.20319237 -7.89419534 33.69868305 -7.93701172 30.19384766 C-7.98593026 26.23654353 -8.06658373 22.28074735 -8.16015625 18.32421875 C-8.19180817 16.46617408 -8.22195122 14.60810256 -8.25 12.75 C-8.27151123 11.93418457 -8.29302246 11.11836914 -8.31518555 10.27783203 C-8.33342372 7.13880118 -8.17191911 4.79361816 -6.796875 1.9453125 C-4.43278029 -0.03847132 -3.05881243 -0.06827706 0 0 Z " fill="#FFFFFF" transform="translate(115,14.5625)"/>
</svg>
