<?xml version="1.0" encoding="UTF-8"?>
<svg version="1.1" xmlns="http://www.w3.org/2000/svg" width="400" height="200">
<path d="M0 0 C1.98 0 3.96 0 6 0 C8.38486887 9.983172 10.59603544 19.69890383 11 30 C11.66 29.67 12.32 29.34 13 29 C14.66234811 28.85398294 16.33150507 28.77910166 18 28.75 C18.886875 28.72421875 19.77375 28.6984375 20.6875 28.671875 C21.450625 28.78015625 22.21375 28.8884375 23 29 C23.66 29.99 24.32 30.98 25 32 C26.32 29.69 27.64 27.38 29 25 C30.4370809 24.94577053 31.87475462 24.90710277 33.3125 24.875 C34.51326172 24.84019531 34.51326172 24.84019531 35.73828125 24.8046875 C38 25 38 25 41 27 C41 26.34 41 25.68 41 25 C43.62527189 24.94617894 46.24944713 24.90641687 48.875 24.875 C49.62136719 24.85824219 50.36773437 24.84148438 51.13671875 24.82421875 C53.09194461 24.8066041 55.04742021 24.89679811 57 25 C59 27 59 27 59 30 C59.66 30 60.32 30 61 30 C61.33 28.68 61.66 27.36 62 26 C66.29 26 70.58 26 75 26 C75.0269741 29.41671948 75.04682672 32.83322589 75.0625 36.25 C75.07087891 37.21808594 75.07925781 38.18617187 75.08789062 39.18359375 C75.09111328 40.11816406 75.09433594 41.05273438 75.09765625 42.015625 C75.10289307 42.87446289 75.10812988 43.73330078 75.11352539 44.61816406 C75.00539986 46.88670744 74.63582423 48.82631715 74 51 C75.4540625 50.938125 75.4540625 50.938125 76.9375 50.875 C81.44889724 50.85651067 85.64837652 51.89482578 90 53 C90 54.98 90 56.96 90 59 C84.08739655 59.25706972 78.76081841 58.2982126 73 57 C72.9071875 58.299375 72.9071875 58.299375 72.8125 59.625 C71.7701758 63.95465435 70.28194215 66.00344413 67 69 C63.4956772 69.41576711 61.17878694 69.58939347 58 68 C57.58186716 61.93707386 57.86725478 58.80292012 62 54 C63.66324401 52.99431758 65.32936253 51.99335201 67 51 C67.87822312 48.91466367 67.87822312 48.91466367 68 47 C65.69 46.34 63.38 45.68 61 45 C60.67 45.99 60.34 46.98 60 48 C58.35 48 56.7 48 55 48 C54.86722656 46.92878906 54.73445313 45.85757813 54.59765625 44.75390625 C54.4194944 43.35674231 54.24109681 41.95960841 54.0625 40.5625 C53.97548828 39.85544922 53.88847656 39.14839844 53.79882812 38.41992188 C53.61783809 34.91182032 53.61783809 34.91182032 52 32 C51.01 36.95 50.02 41.9 49 47 C47.02 47 45.04 47 43 47 C43 47.66 43 48.32 43 49 C41.00045254 49.04254356 38.99958364 49.04080783 37 49 C36.67 48.67 36.34 48.34 36 48 C34.54044555 48.05814958 33.08202413 48.14626365 31.625 48.25 C29.16796875 48.296875 29.16796875 48.296875 27 48 C24.9375 45.5 24.9375 45.5 24 43 C23.03900391 43.54140625 23.03900391 43.54140625 22.05859375 44.09375 C16.77204364 46.9300511 13.02389045 48.76900729 7 48 C6.505 47.505 6.505 47.505 6 47 C5.67 48.32 5.34 49.64 5 51 C3.02 51 1.04 51 -1 51 C-1.33 47.04 -1.66 43.08 -2 39 C-2.66 41.64 -3.32 44.28 -4 47 C-5.65 47 -7.3 47 -9 47 C-9.33 45.02 -9.66 43.04 -10 41 C-10.33 41 -10.66 41 -11 41 C-11.33 43.97 -11.66 46.94 -12 50 C-13.65 50 -15.3 50 -17 50 C-17 43.07 -17 36.14 -17 29 C-11.56214319 28.93116637 -6.27415919 28.88434474 -0.875 29.5625 C0.40375 29.706875 1.6825 29.85125 3 30 C3.33 29.67 3.66 29.34 4 29 C3.87049319 27.09523411 3.87049319 27.09523411 3.4765625 24.8515625 C3.3425 24.01109375 3.2084375 23.170625 3.0703125 22.3046875 C2.84988281 20.97824219 2.84988281 20.97824219 2.625 19.625 C2.48578125 18.7484375 2.3465625 17.871875 2.203125 16.96875 C1.64527598 13.52692681 1.10498823 10.31496469 0 7 C-0.03954234 4.66700175 -0.04401732 2.33291811 0 0 Z M33 32 C31.14223235 35.13498292 30.79859524 37.37471432 31 41 C34.31460705 39.29107501 34.31460705 39.29107501 34.6875 35.875 C34.790625 34.92625 34.89375 33.9775 35 33 C34.34 32.67 33.68 32.34 33 32 Z M67 33 C65.70366379 34.06645115 65.70366379 34.06645115 65.9375 36.5625 C65.958125 37.366875 65.97875 38.17125 66 39 C68.1385485 36.8614515 68.42655063 35.86724686 69 33 C68.34 33 67.68 33 67 33 Z M17 36 C16.01 37.485 16.01 37.485 15 39 C16.32 38.34 17.64 37.68 19 37 C18.34 36.67 17.68 36.34 17 36 Z " fill="#FFFFFF" transform="translate(107,39)"/>
<path d="M0 0 C0.66 0.66 1.32 1.32 2 2 C7.04625044 3.00925009 11.88228715 3.08978444 17 3 C17.495 3.99 17.495 3.99 18 5 C18.66 4.67 19.32 4.34 20 4 C26.53333333 3.76666667 26.53333333 3.76666667 29 5 C29.33 4.34 29.66 3.68 30 3 C32.10304477 2.8919977 34.20766909 2.81441013 36.3125 2.75 C38.07013672 2.68039063 38.07013672 2.68039063 39.86328125 2.609375 C43 3 43 3 44.91796875 5.015625 C45.27503906 5.67046875 45.63210938 6.3253125 46 7 C46.66 6.01 47.32 5.02 48 4 C50.8203125 3.70703125 50.8203125 3.70703125 54.125 3.8125 C55.76855469 3.85310547 55.76855469 3.85310547 57.4453125 3.89453125 C58.70988281 3.94673828 58.70988281 3.94673828 60 4 C60.92411594 9.47868736 61.15214283 14.7617918 61.125 20.3125 C61.12886719 21.12267578 61.13273437 21.93285156 61.13671875 22.76757812 C61.12676222 28.74647556 61.12676222 28.74647556 60 31 C63.96 31 67.92 31 72 31 C72 33.31 72 35.62 72 38 C70.49759766 38.00386719 70.49759766 38.00386719 68.96484375 38.0078125 C60.31466796 37.90032993 60.31466796 37.90032993 53.125 42.0625 C52.63 42.60132813 52.135 43.14015625 51.625 43.6953125 C48.91414749 45.87181428 46.16237754 45.49552281 42.8203125 45.30859375 C41 45 41 45 40 44 C39.71209433 41.07295905 39.51774507 38.84918432 40 36 C42.77918777 32.71550536 44.58617234 32.08140872 48.8125 31.25 C50.3903125 31.12625 50.3903125 31.12625 52 31 C52.66 28.69 53.32 26.38 54 24 C49.38 24.33 44.76 24.66 40 25 C39.505 21.535 39.505 21.535 39 18 C38.34 20.64 37.68 23.28 37 26 C22.78594879 27.40840446 22.78594879 27.40840446 16 26 C14 24 14 24 13.8046875 20.9609375 C13.82789063 19.77757813 13.85109375 18.59421875 13.875 17.375 C13.89304687 16.18648437 13.91109375 14.99796875 13.9296875 13.7734375 C13.95289063 12.85820313 13.97609375 11.94296875 14 11 C10.94093074 13.51066469 10.24808722 15.90059933 9.3125 19.6875 C9.06113281 20.68136719 8.80976563 21.67523438 8.55078125 22.69921875 C8.36902344 23.45847656 8.18726563 24.21773437 8 25 C6.02 25 4.04 25 2 25 C2 20.71 2 16.42 2 12 C-1.96 13.98 -1.96 13.98 -6 16 C-3.69 16.33 -1.38 16.66 1 17 C1.04254356 18.99954746 1.04080783 21.00041636 1 23 C-0.72584734 24.72584734 -2.96209367 24.2533507 -5.3125 24.3125 C-6.27800781 24.34988281 -7.24351562 24.38726562 -8.23828125 24.42578125 C-11 24 -11 24 -13.32421875 22.37890625 C-16.53414577 17.82215671 -15.66769561 12.32834316 -15 7 C-13.97820845 4.25860804 -13.08518903 3.14476586 -11 1 C-7.07703567 -0.30765478 -4.13997567 -0.1971417 0 0 Z M22 13 C23 15 23 15 23 15 Z M52 13 C53 15 53 15 53 15 Z M21 15 C22 17 22 17 22 17 Z " fill="#FFFFFF" transform="translate(260,66)"/>
<path d="M0 0 C3.9801627 2.75018187 3.9801627 2.75018187 5.25 4.5546875 C5.4375 7.7421875 5.4375 7.7421875 5.25 10.5546875 C-0.7315262 12.01955106 -0.7315262 12.01955106 -3.6328125 10.6953125 C-4.52613281 10.13070312 -4.52613281 10.13070312 -5.4375 9.5546875 C-8.40828088 7.37162969 -8.40828088 7.37162969 -10.875 7.5546875 C-17.48948825 11.08241457 -20.30157229 15.96799975 -22.5 22.9296875 C-22.5825 23.7959375 -22.665 24.6621875 -22.75 25.5546875 C-22.82476562 26.27269531 -22.89953125 26.99070313 -22.9765625 27.73046875 C-23.38935994 34.71543593 -21.61290986 39.74971032 -17.75 45.5546875 C-14.34204501 49.13740942 -11.67217627 50.24705148 -6.75 50.5546875 C-3.98135047 50.18609762 -3.98135047 50.18609762 -1.75 49.5546875 C-1.75 46.5846875 -1.75 43.6146875 -1.75 40.5546875 C-2.86375 40.7609375 -3.9775 40.9671875 -5.125 41.1796875 C-6.32125 41.3034375 -7.5175 41.4271875 -8.75 41.5546875 C-10.75 39.5546875 -10.75 39.5546875 -10.9375 36.4921875 C-10.75 33.5546875 -10.75 33.5546875 -9.75 32.5546875 C-3.74120759 31.54127958 1.57309732 30.94638086 7.25 33.5546875 C7.745 39.4946875 7.745 39.4946875 8.25 45.5546875 C8.394375 44.0284375 8.53875 42.5021875 8.6875 40.9296875 C9.06773617 37.10559802 9.55338168 33.33632979 10.25 29.5546875 C13.625 28.9296875 13.625 28.9296875 17.25 28.5546875 C19.25 30.5546875 19.25 30.5546875 19.48046875 33.71484375 C19.46628906 35.00261719 19.45210938 36.29039062 19.4375 37.6171875 C19.43105469 38.28951416 19.42460937 38.96184082 19.41796875 39.65454102 C19.34066376 44.68359319 18.94847799 49.57803181 18.25 54.5546875 C14.875 55.1796875 14.875 55.1796875 11.25 55.5546875 C10.59 54.8946875 9.93 54.2346875 9.25 53.5546875 C8.528125 54.1734375 7.80625 54.7921875 7.0625 55.4296875 C0.80762166 60.15559558 -6.06961033 60.73711956 -13.75 60.5546875 C-20.29211158 59.25805277 -24.53704102 55.60345441 -28.3046875 50.21484375 C-33.99345785 39.74443129 -34.09323284 26.03880642 -30.95703125 14.68359375 C-30.0457416 12.47790085 -29.04385645 10.55666808 -27.75 8.5546875 C-27.3890625 7.98492187 -27.028125 7.41515625 -26.65625 6.828125 C-20.7362875 -1.29182357 -9.12101964 -4.79371771 0 0 Z " fill="#FFFFFF" transform="translate(279.75,125.4453125)"/>
<path d="M0 0 C2.05782553 0.66303219 4.02110206 1.44643252 6.01171875 2.2890625 C8.24957455 3.18590455 8.24957455 3.18590455 11.8125 3.3125 C12.864375 3.539375 13.91625 3.76625 15 4 C16.9375 7.0625 16.9375 7.0625 18 10 C18.33 9.34 18.66 8.68 19 8 C21.31 8 23.62 8 26 8 C26 7.34 26 6.68 26 6 C27.65 6 29.3 6 31 6 C31.66 7.65 32.32 9.3 33 11 C33.99 9.02 34.98 7.04 36 5 C42.0546875 4.8046875 42.0546875 4.8046875 44 5 C46 7 46 7 46.23046875 9.49609375 C46.21628906 10.46675781 46.20210937 11.43742187 46.1875 12.4375 C46.18105469 13.40558594 46.17460938 14.37367187 46.16796875 15.37109375 C46 18 46 18 45 21 C44.96079185 22.99961564 44.95556653 25.00049364 45 27 C36.42857143 27.28571429 36.42857143 27.28571429 33 25 C32.34 27.31 31.68 29.62 31 32 C33.97 32.33 36.94 32.66 40 33 C40 34.65 40 36.3 40 38 C36.37 38 32.74 38 29 38 C28.34 39.65 27.68 41.3 27 43 C23.68629 45.20914 22.6553979 45.22481553 18.8125 45.125 C17.91144531 45.10695312 17.01039062 45.08890625 16.08203125 45.0703125 C15.39496094 45.04710937 14.70789063 45.02390625 14 45 C12.4364652 41.87293041 12.60041513 38.42017557 13 35 C15 32 15 32 18 31 C20.33299825 30.96045766 22.66708189 30.95598268 25 31 C25 29.68 25 28.36 25 27 C20.71 26.34 16.42 25.68 12 25 C11.34 21.7 10.68 18.4 10 15 C9.67 17.97 9.34 20.94 9 24 C7.02 24 5.04 24 3 24 C2.67 20.37 2.34 16.74 2 13 C-1.04200046 13 -3.99532806 13.55486342 -7 14 C-4.64619703 17.92300495 -2.35535069 18.83857315 2 20 C2 21.65 2 23.3 2 25 C-2.92847709 25.43064363 -6.72783423 25.71241283 -11.125 23.25 C-13.99519658 18.27499259 -13.70562652 13.60707522 -13 8 C-10.45820568 0.97980615 -7.33154619 -0.60094641 0 0 Z M24 15 C23.67 16.32 23.34 17.64 23 19 C23.66 18.67 24.32 18.34 25 18 C24.67 17.01 24.34 16.02 24 15 Z " fill="#FFFFFF" transform="translate(43,62)"/>
<path d="M0 0 C2.31 0 4.62 0 7 0 C7.66 11.88 8.32 23.76 9 36 C9.99 35.01 10.98 34.02 12 33 C15.1875 32.8125 15.1875 32.8125 18 33 C18.33292585 37.24480464 18.43885872 39.35542625 16 42.9375 C15.01 43.9584375 15.01 43.9584375 14 45 C17.17539556 48.42578949 17.17539556 48.42578949 21 51 C20.97679687 50.10796875 20.95359375 49.2159375 20.9296875 48.296875 C20.90261719 46.54117188 20.90261719 46.54117188 20.875 44.75 C20.85179687 43.58984375 20.82859375 42.4296875 20.8046875 41.234375 C20.99258944 38.12271895 21.24746018 36.53015683 23 34 C26.27127586 31.81914943 27.27376723 31.75112141 31.0625 31.8125 C31.94035156 31.81894531 32.81820312 31.82539062 33.72265625 31.83203125 C36 32 36 32 38 33 C37.855625 32.28714844 37.71125 31.57429688 37.5625 30.83984375 C36.5202768 25.46226157 35.7566048 20.47639208 36 15 C38.31 15 40.62 15 43 15 C43.66 20.61 44.32 26.22 45 32 C46.32 32 47.64 32 49 32 C49 34.31 49 36.62 49 39 C47.68 39 46.36 39 45 39 C45.22807491 40.79458945 45.48322303 42.58575449 45.75 44.375 C45.88921875 45.37273437 46.0284375 46.37046875 46.171875 47.3984375 C46.74386889 50.14561047 46.74386889 50.14561047 49.078125 51.3515625 C49.71234375 51.56554687 50.3465625 51.77953125 51 52 C51 53.98 51 55.96 51 58 C49.54207116 58.05399736 48.08357288 58.09279177 46.625 58.125 C45.81289063 58.14820313 45.00078125 58.17140625 44.1640625 58.1953125 C42 58 42 58 40 56 C39.505 56.99 39.505 56.99 39 58 C36.69 58 34.38 58 32 58 C31.67 57.34 31.34 56.68 31 56 C28.36 56 25.72 56 23 56 C23 56.66 23 57.32 23 58 C14.96498906 58.63019694 14.96498906 58.63019694 10.9375 56 C10.298125 55.34 9.65875 54.68 9 54 C8.67 55.32 8.34 56.64 8 58 C5.69 58 3.38 58 1 58 C1.01740234 56.36998047 1.01740234 56.36998047 1.03515625 54.70703125 C1.15920156 36.46267945 0.54642061 18.23388132 0 0 Z M37 39 C37.33 42.63 37.66 46.26 38 50 C38.33 50 38.66 50 39 50 C39.05399736 48.54207116 39.09279177 47.08357288 39.125 45.625 C39.14820313 44.81289062 39.17140625 44.00078125 39.1953125 43.1640625 C39.21370051 40.78657757 39.21370051 40.78657757 37 39 Z M28 42 C29 44 29 44 29 44 Z M27 45 C28 47 28 47 28 47 Z " fill="#FFFFFF" transform="translate(321,35)"/>
<path d="M0 0 C1.98 0 3.96 0 6 0 C6.10731538 9.39605802 5.99263429 18.64087671 5 28 C6.98 28 8.96 28 11 28 C11.37096774 33.56451613 11.37096774 33.56451613 9.5625 35.6875 C9.046875 36.120625 8.53125 36.55375 8 37 C7.67 37.99 7.34 38.98 7 40 C8.98 40.66 10.96 41.32 13 42 C13 43.98 13 45.96 13 48 C6.25 48.125 6.25 48.125 4 47 C4 48.65 4 50.3 4 52 C2.02 52 0.04 52 -2 52 C-2 53.65 -2 55.3 -2 57 C-3.98 57 -5.96 57 -8 57 C-8.33 55.68 -8.66 54.36 -9 53 C-12.3 52.67 -15.6 52.34 -19 52 C-19.33 52.99 -19.66 53.98 -20 55 C-21.99954746 55.04254356 -24.00041636 55.04080783 -26 55 C-27.57320272 53.42679728 -27.32942336 51.70811236 -27.53515625 49.52734375 C-27.62216797 48.62822266 -27.70917969 47.72910156 -27.79882812 46.80273438 C-27.88583984 45.85720703 -27.97285156 44.91167969 -28.0625 43.9375 C-28.15337891 42.98810547 -28.24425781 42.03871094 -28.33789062 41.06054688 C-28.56256498 38.70737865 -28.78308182 36.35389381 -29 34 C-30.24669537 38.70298089 -31.26006249 43.13416648 -31.625 48 C-31.69976562 48.94875 -31.77453125 49.8975 -31.8515625 50.875 C-31.90054688 51.57625 -31.94953125 52.2775 -32 53 C-34.31 53 -36.62 53 -39 53 C-38.67 43.43 -38.34 33.86 -38 24 C-33.26456964 23.05291393 -29.76544308 22.76563395 -25 23 C-22.37548383 25.62451617 -22.4167132 27.4877828 -21.875 31.125 C-21.70742187 32.22070312 -21.53984375 33.31640625 -21.3671875 34.4453125 C-21.24601562 35.28835937 -21.12484375 36.13140625 -21 37 C-20.7525 35.9275 -20.505 34.855 -20.25 33.75 C-19 30 -19 30 -15 26 C-10.71 26 -6.42 26 -2 26 C-1.34 17.42 -0.68 8.84 0 0 Z M-11 33 C-14.12940055 36.97193147 -14.29162929 40.04230204 -14 45 C-11.2289312 42.65408148 -10.47940716 40.85223799 -9.8125 37.3125 C-9.65394531 36.50425781 -9.49539062 35.69601563 -9.33203125 34.86328125 C-9.22246094 34.24839844 -9.11289063 33.63351563 -9 33 C-9.66 33 -10.32 33 -11 33 Z " fill="#FFFFFF" transform="translate(164,125)"/>
<path d="M0 0 C1.9453125 -0.29296875 1.9453125 -0.29296875 4.125 -0.1875 C5.40375 -0.125625 6.6825 -0.06375 8 0 C11.36743429 13.25248334 11.17674011 36.64651979 5 49 C5.55945313 49.09796875 6.11890625 49.1959375 6.6953125 49.296875 C13.16223596 50.50292503 19.40321625 52.20910894 25.703125 54.09765625 C28.79701588 54.94444392 31.82887981 55.53394143 35 56 C34.67 55.34 34.34 54.68 34 54 C33.90080191 51.2603822 33.86110725 48.55168757 33.875 45.8125 C33.86919922 44.6977832 33.86919922 44.6977832 33.86328125 43.56054688 C33.88509658 31.11490342 33.88509658 31.11490342 36 29 C37.99958364 28.95919217 40.00045254 28.95745644 42 29 C41.90460938 30.30195313 41.80921875 31.60390625 41.7109375 32.9453125 C41.59833823 34.67183467 41.48639357 36.39839962 41.375 38.125 C41.31054688 38.9809375 41.24609375 39.836875 41.1796875 40.71875 C40.87988524 45.59053668 40.87154565 49.46798495 43 54 C43.99 54.495 43.99 54.495 45 55 C46.32 47.41 47.64 39.82 49 32 C50.98 32 52.96 32 55 32 C55 42.23 55 52.46 55 63 C40 63 40 63 37 62 C34.95745278 62.05786253 32.91570984 62.14583384 30.875 62.25 C23.21370601 62.34586604 16.74908155 60.47361136 9.51953125 58.09375 C6.1367857 56.85161705 6.1367857 56.85161705 3 57 C2.73445313 57.56589844 2.46890625 58.13179687 2.1953125 58.71484375 C1.84210938 59.44832031 1.48890625 60.18179688 1.125 60.9375 C0.77695313 61.66839844 0.42890625 62.39929688 0.0703125 63.15234375 C-1 65 -1 65 -3 66 C-6.5625 66.125 -6.5625 66.125 -10 66 C-11.64156736 64.35843264 -11.28815992 62.50784199 -11.375 60.25 C-11.3408715 56.2740299 -11.19549417 55.26608929 -8.75 51.9375 C-6.34122652 50.24040959 -4.88895266 49.32099474 -2 49 C-1.86722656 47.88238281 -1.73445313 46.76476562 -1.59765625 45.61328125 C-1.20623883 42.47434826 -0.75124794 39.35306768 -0.24609375 36.23046875 C1.86030824 23.1897223 1.86030824 23.1897223 2 10 C0.68 9.67 -0.64 9.34 -2 9 C-2.25 3.375 -2.25 3.375 0 0 Z " fill="#FFFFFF" transform="translate(69,117)"/>
<path d="M0 0 C4.54425914 4.42773967 5.63329414 8.06713258 5.875 14.3125 C5.59632011 22.69353968 2.59924937 26.46114559 -3.3125 32 C-14.14583333 41.375 -14.14583333 41.375 -18.5625 41.375 C-18.2325 53.915 -17.9025 66.455 -17.5625 79.375 C-19.5425 79.375 -21.5225 79.375 -23.5625 79.375 C-25.23877291 74.34618128 -24.95874385 69.08240952 -25.125 63.8125 C-25.1876001 61.878302 -25.1876001 61.878302 -25.25146484 59.9050293 C-25.61095665 47.8343386 -25.67183907 35.76285092 -25.6875 23.6875 C-25.6900882 22.7486496 -25.69267639 21.80979919 -25.69534302 20.84249878 C-25.70118198 18.16188725 -25.69962749 15.4813936 -25.6953125 12.80078125 C-25.69729141 11.99269012 -25.69927032 11.184599 -25.7013092 10.35202026 C-25.68774345 7.09980167 -25.59833014 4.48249042 -24.5625 1.375 C-17.42400728 -2.74531765 -7.40933416 -3.37969629 0 0 Z M-17.5625 9.375 C-18.79034809 10.38059794 -18.79034809 10.38059794 -18.67602539 12.41625977 C-18.67078857 13.29080811 -18.66555176 14.16535645 -18.66015625 15.06640625 C-18.65693359 16.01064453 -18.65371094 16.95488281 -18.65039062 17.92773438 C-18.64201172 18.92095703 -18.63363281 19.91417969 -18.625 20.9375 C-18.62048828 21.93458984 -18.61597656 22.93167969 -18.61132812 23.95898438 C-18.59950007 26.43104849 -18.58301849 28.90299518 -18.5625 31.375 C-14.35847855 29.97114364 -11.64060793 27.97412401 -8.375 25 C-7.51519531 24.22914062 -6.65539062 23.45828125 -5.76953125 22.6640625 C-3.75178734 20.5713228 -2.55521765 19.07987675 -1.5625 16.375 C-1.64859711 12.3284359 -2.31694266 10.6802875 -4.875 7.5 C-9.96250903 3.47731844 -12.92916118 5.9772182 -17.5625 9.375 Z " fill="#FFFFFF" transform="translate(261.5625,19.625)"/>
<path d="M0 0 C5.56961061 0.0039764 9.94309987 0.4519612 14.421875 3.9765625 C18.61644507 8.19368402 19.09262702 12.04249992 19.3125 17.8125 C19.1276478 24.58271178 17.93766214 29.18944668 13.26171875 34.1484375 C9.12641705 37.90780268 4.64791292 41.4375 -1.125 41.4375 C-0.96652588 42.57445312 -0.80805176 43.71140625 -0.64477539 44.8828125 C-0.08662877 49.36224803 0.09327087 53.80258946 0.19140625 58.3125 C0.21218735 59.12243408 0.23296844 59.93236816 0.25437927 60.7668457 C0.31913656 63.32365424 0.37841194 65.88055481 0.4375 68.4375 C0.48075566 70.18360281 0.52437204 71.92969672 0.56835938 73.67578125 C0.67474083 77.92959609 0.77621018 82.18350236 0.875 86.4375 C-1.105 86.4375 -3.085 86.4375 -5.125 86.4375 C-5.6483521 76.37128085 -6.17003697 66.30497681 -6.68960571 56.23856163 C-6.93092554 51.56410897 -7.17281509 46.88968725 -7.41601562 42.21533203 C-7.65078541 37.70261046 -7.88404692 33.1898132 -8.11627197 28.67695999 C-8.2050427 26.95699927 -8.2943528 25.2370663 -8.38421631 23.51716232 C-8.51018526 21.10444945 -8.63421968 18.69164419 -8.7578125 16.27880859 C-8.79521545 15.57102264 -8.83261841 14.86323669 -8.87115479 14.13400269 C-8.96729455 12.23571707 -9.04669095 10.33660474 -9.125 8.4375 C-9.17382324 7.32702301 -9.22264648 6.21654602 -9.27294922 5.07241821 C-8.94916353 -0.6940794 -4.76245394 0.08047884 0 0 Z M-3.125 7.4375 C-3.48157734 9.91066829 -3.48157734 9.91066829 -3.26953125 12.77734375 C-3.22376953 13.84017578 -3.17800781 14.90300781 -3.13085938 15.99804688 C-3.06705078 17.11244141 -3.00324219 18.22683594 -2.9375 19.375 C-2.89302734 20.48552734 -2.84855469 21.59605469 -2.80273438 22.74023438 C-2.66944749 28.9453974 -2.66944749 28.9453974 -0.125 34.4375 C5.10601616 30.74277742 9.93659822 27.31430356 12.875 21.4375 C13.29722151 17.72195073 13.00520872 15.70876817 11.375 12.3125 C8.30979138 8.78751009 5.18730685 7.11505644 0.875 5.4375 C-0.58725016 5.34504997 -0.58725016 5.34504997 -3.125 7.4375 Z " fill="#FFFFFF" transform="translate(29.125,13.5625)"/>
<path d="M0 0 C2.64 0 5.28 0 8 0 C8 0.66 8 1.32 8 2 C12.10205687 2.07196591 15.75345955 2.04041647 19.8125 1.375 C23 1 23 1 26 3 C26.9140625 5.20703125 26.9140625 5.20703125 27.625 7.8125 C27.86476563 8.66457031 28.10453125 9.51664063 28.3515625 10.39453125 C29.48232257 14.93800696 30.13769471 19.05295905 30.125 23.75 C30.12886719 25.19632813 30.12886719 25.19632813 30.1328125 26.671875 C30 29 30 29 29 30 C26.66702567 30.04092937 24.33294775 30.04241723 22 30 C21.34 27.03 20.68 24.06 20 21 C19.34 22.32 18.68 23.64 18 25 C15.69 25 13.38 25 11 25 C10.01 27.475 10.01 27.475 9 30 C6.69 30 4.38 30 2 30 C1.65802981 26.87588408 1.32807747 23.75060292 1 20.625 C0.90460938 19.75488281 0.80921875 18.88476562 0.7109375 17.98828125 C0.08678885 11.96970497 -0.11723906 6.04920988 0 0 Z " fill="#FFFFFF" transform="translate(300,151)"/>
<path d="M0 0 C0.86625 0.20496094 0.86625 0.20496094 1.75 0.4140625 C2.08 1.0740625 2.41 1.7340625 2.75 2.4140625 C5.06 2.4140625 7.37 2.4140625 9.75 2.4140625 C13.41513208 9.10691239 13.4476571 15.89719236 13.75 23.4140625 C11.77 23.4140625 9.79 23.4140625 7.75 23.4140625 C7.09 19.7840625 6.43 16.1540625 5.75 12.4140625 C4.43 15.3840625 3.11 18.3540625 1.75 21.4140625 C0.43 21.4140625 -0.89 21.4140625 -2.25 21.4140625 C-2.25 22.0740625 -2.25 22.7340625 -2.25 23.4140625 C-4.625 23.6015625 -4.625 23.6015625 -7.25 23.4140625 C-7.91 22.4240625 -8.57 21.4340625 -9.25 20.4140625 C-9.91 20.7440625 -10.57 21.0740625 -11.25 21.4140625 C-12.79023996 21.48356791 -14.33334988 21.49858607 -15.875 21.4765625 C-17.10089844 21.46302734 -17.10089844 21.46302734 -18.3515625 21.44921875 C-18.97804687 21.43761719 -19.60453125 21.42601563 -20.25 21.4140625 C-22.98246103 16.59143209 -23.14805255 11.67411627 -21.6796875 6.34375 C-17.78706926 -3.44925798 -8.7564065 -0.82091311 0 0 Z M-12.25 5.4140625 C-14.77259061 7.38826385 -15.2429808 8.38151892 -15.9375 11.6015625 C-16.040625 12.5296875 -16.14375 13.4578125 -16.25 14.4140625 C-15.26 14.0840625 -14.27 13.7540625 -13.25 13.4140625 C-11.53432339 9.91111379 -11.53432339 9.91111379 -10.25 6.4140625 C-10.91 6.0840625 -11.57 5.7540625 -12.25 5.4140625 Z " fill="#FFFFFF" transform="translate(207.25,65.5859375)"/>
<path d="M0 0 C1.98 0 3.96 0 6 0 C6.0270817 2.72923388 6.04687847 5.45819637 6.0625 8.1875 C6.07087891 8.95642578 6.07925781 9.72535156 6.08789062 10.51757812 C6.10491934 14.48526789 5.98604115 18.12571234 5 22 C2.69 22 0.38 22 -2 22 C-2 22.99 -2 23.98 -2 25 C0.475 25.99 0.475 25.99 3 27 C3 29.31 3 31.62 3 34 C2.34 34 1.68 34 1 34 C1 34.66 1 35.32 1 36 C1.99 36.33 2.98 36.66 4 37 C4 42.61 4 48.22 4 54 C2.02 54 0.04 54 -2 54 C-2 50.7 -2 47.4 -2 44 C-3.65 43.67 -5.3 43.34 -7 43 C-7.07347656 41.75283203 -7.07347656 41.75283203 -7.1484375 40.48046875 C-7.22320312 39.39378906 -7.29796875 38.30710938 -7.375 37.1875 C-7.44460937 36.10855469 -7.51421875 35.02960938 -7.5859375 33.91796875 C-7.81195733 30.81373814 -7.81195733 30.81373814 -10 28 C-10.30078125 25.625 -10.30078125 25.625 -10.3125 23 C-10.32925781 22.13375 -10.34601563 21.2675 -10.36328125 20.375 C-10 18 -10 18 -8.6796875 16.19921875 C-6.17533953 14.41123078 -3.9857871 14.80094753 -1 15 C-1.020625 13.824375 -1.04125 12.64875 -1.0625 11.4375 C-1.06947261 7.52586533 -0.64250343 3.85502056 0 0 Z " fill="#FFFFFF" transform="translate(214,130)"/>
<path d="M0 0 C1.10647808 2.21295616 1.19588368 3.54672699 1.25 6 C1.28867187 7.051875 1.28867187 7.051875 1.328125 8.125 C1.21984375 8.74375 1.1115625 9.3625 1 10 C-2.22213757 12.14809171 -3.27775401 12.29386153 -7 12 C-8 11 -8 11 -8.25 7.125 C-8.20764899 4.49923745 -8.16919812 3.28496525 -6.8125 1 C-4.44004321 -0.30894168 -2.6664882 -0.21620175 0 0 Z " fill="#FFFFFF" transform="translate(297,140)"/>
</svg>
